# xmcd
#
# Track frame offsets: 
#        150
#        18914
#        31649
#        50814
#        59132
#        88832
#        105550
#        118573
#        142103
#        165170
#        186142
#        223335
#
# Disc length: 3198 seconds
#
# Revision: 1
# Processed by: cddbd v1.5.2PL0 Copyright (c) Steve Scherf et al.
# Submitted via: ExactAudioCopy v1.3
#
DISCID=a90c7c0c
DTITLE=五月天 - 諾亞方舟-世界巡迴演唱會Live 2CD(正式版) Disc 2
DYEAR=2013
DGENRE=五月天
TTITLE0=乾杯
TTITLE1=瘋狂世界
TTITLE2=三個傻瓜
TTITLE3=OK啦
TTITLE4=溫柔
TTITLE5=OAOA（現在就是永遠）
TTITLE6=有些事現在不做一輩子都不會做了
TTITLE7=倔強
TTITLE8=離開地球表面＋諾亞方舟
TTITLE9=突然好想你
TTITLE10=憨人
TTITLE11=傷心的人別聽慢歌（貫徹快樂）
EXTD=
EXTT0=
EXTT1=
EXTT2=
EXTT3=
EXTT4=
EXTT5=
EXTT6=
EXTT7=
EXTT8=
EXTT9=
EXTT10=
EXTT11=
PLAYORDER=
